<svg width="8" height="6" viewBox="0 0 8 6" fill="none" xmlns="http://www.w3.org/2000/svg">
<path d="M7.5728 1.33146L3.30319 5.60354C3.15539 5.7504 2.9556 5.83297 2.74725 5.83333C2.64399 5.83369 2.54169 5.81357 2.44626 5.77413C2.35083 5.73469 2.26418 5.6767 2.19131 5.60354L0.22946 3.64169C0.0824995 3.49399 0 3.29411 0 3.08575C0 2.8774 0.0824995 2.67752 0.22946 2.52981C0.377161 2.38285 0.577042 2.30036 0.785399 2.30036C0.993757 2.30036 1.19364 2.38285 1.34134 2.52981L2.74725 3.93572L6.45351 0.229462C6.60121 0.0825014 6.80109 0 7.00945 0C7.21781 0 7.41769 0.0825014 7.56539 0.229462C7.71036 0.375762 7.7923 0.572999 7.79369 0.778954C7.79507 0.98491 7.71579 1.18323 7.5728 1.33146Z" fill="currentColor"/>
</svg>
