<svg width="17" height="18" viewBox="0 0 17 18" fill="none" xmlns="http://www.w3.org/2000/svg">
<path fill-rule="evenodd" clip-rule="evenodd" d="M14.6119 1.75H13.6986V0H11.8721V1.75H4.56621V0H2.73973V1.75H1.82648C0.812785 1.75 0.00913242 2.5375 0.00913242 3.5L0 15.75C0 16.7125 0.812785 17.5 1.82648 17.5H14.6119C15.6164 17.5 16.4384 16.7125 16.4384 15.75V3.5C16.4384 2.5375 15.6164 1.75 14.6119 1.75ZM3.65297 7.875V9.625H5.47945V7.875H3.65297ZM9.13242 7.875H7.30594V9.625H9.13242V7.875ZM12.7854 7.875V9.625H10.9589V7.875H12.7854ZM1.82648 15.75H14.6119V6.125H1.82648V15.75Z" fill="currentColor" fill-opacity="0.54"/>
</svg>
