<svg width="26" height="26" viewBox="0 0 26 26" fill="none" xmlns="http://www.w3.org/2000/svg">
<path d="M12.9875 0.5C6.0875 0.5 0.5 6.1 0.5 13C0.5 19.9 6.0875 25.5 12.9875 25.5C19.9 25.5 25.5 19.9 25.5 13C25.5 6.1 19.9 0.5 12.9875 0.5ZM17.025 19.7375L13 17.3125L8.975 19.7375C8.5 20.025 7.9125 19.6 8.0375 19.0625L9.1 14.4875L5.5625 11.425C5.15 11.0625 5.375 10.375 5.925 10.325L10.6 9.925L12.425 5.6125C12.6375 5.1 13.3625 5.1 13.575 5.6125L15.4 9.9125L20.075 10.3125C20.625 10.3625 20.85 11.05 20.425 11.4125L16.8875 14.475L17.95 19.0625C18.075 19.6 17.5 20.025 17.025 19.7375Z" fill="currentColor"/>
</svg>
