<svg width="25" height="25" viewBox="0 0 25 25" fill="none" xmlns="http://www.w3.org/2000/svg">
<path d="M15.3288 2.79639H18.7661C19.039 2.80036 19.2996 2.90816 19.4926 3.09692C19.6856 3.28567 19.7958 3.54054 19.7999 3.80745V20.9853C19.7958 21.2522 19.6856 21.5071 19.4926 21.6959C19.2996 21.8846 19.039 21.9924 18.7661 21.9964H15.3288C15.0558 21.9924 14.7952 21.8846 14.6022 21.6959C14.4092 21.5071 14.299 21.2522 14.2949 20.9853V3.80745C14.299 3.54054 14.4092 3.28567 14.6022 3.09692C14.7952 2.90816 15.0558 2.80036 15.3288 2.79639Z" fill="currentColor"/>
<path d="M6.43372 2.79639H9.86054C10.1362 2.79636 10.4008 2.90239 10.5972 3.09157C10.7936 3.28075 10.906 3.5379 10.9101 3.80745V20.9853C10.906 21.2549 10.7936 21.512 10.5972 21.7012C10.4008 21.8904 10.1362 21.9964 9.86054 21.9964H6.43372C6.1608 21.9924 5.9002 21.8846 5.7072 21.6959C5.51419 21.5071 5.40397 21.2522 5.3999 20.9853V3.80745C5.40397 3.54054 5.51419 3.28567 5.7072 3.09692C5.9002 2.90816 6.1608 2.80036 6.43372 2.79639Z" fill="currentColor"/>
</svg>
