<svg width="17" height="21" viewBox="0 0 17 21" fill="none" xmlns="http://www.w3.org/2000/svg">
<path d="M11.1979 0.697927C10.802 0.302093 10.2708 0.0833435 9.71871 0.0833435H2.24996C1.10413 0.0833435 0.166626 1.02084 0.166626 2.16668V18.8333C0.166626 19.9792 1.09371 20.9167 2.23954 20.9167H14.75C15.8958 20.9167 16.8333 19.9792 16.8333 18.8333V7.19793C16.8333 6.64584 16.6145 6.11459 16.2187 5.72918L11.1979 0.697927ZM11.625 14.6667H9.54163V16.75C9.54163 17.3229 9.07288 17.7917 8.49996 17.7917C7.92704 17.7917 7.45829 17.3229 7.45829 16.75V14.6667H5.37496C4.80204 14.6667 4.33329 14.1979 4.33329 13.625C4.33329 13.0521 4.80204 12.5833 5.37496 12.5833H7.45829V10.5C7.45829 9.92709 7.92704 9.45834 8.49996 9.45834C9.07288 9.45834 9.54163 9.92709 9.54163 10.5V12.5833H11.625C12.1979 12.5833 12.6666 13.0521 12.6666 13.625C12.6666 14.1979 12.1979 14.6667 11.625 14.6667ZM9.54163 6.33334V1.64584L15.2708 7.37501H10.5833C10.0104 7.37501 9.54163 6.90626 9.54163 6.33334Z" fill="black"/>
</svg>
